HIERARCHY
ROOT hip
{
  OFFSET 0 0 0
  CHANNELS 6 Xposition Yposition Zposition Zrotation Yrotation Xrotation
  JOINT abdomen
  {
    OFFSET 0 20.6881 -0.73152
    CHANNELS 3 Zrotation Xrotation Yrotation
    JOINT chest
    {
      OFFSET 0 11.7043 -0.48768
      CHANNELS 3 Zrotation Xrotation Yrotation
      JOINT neck
      {
        OFFSET 0 22.1894 -2.19456
        CHANNELS 3 Zrotation Xrotation Yrotation
        JOINT head
        {
          OFFSET -0.24384 7.07133 1.2192
          CHANNELS 3 Zrotation Xrotation Yrotation
          JOINT leftEye
          {
            OFFSET 4.14528 8.04674 8.04672
            CHANNELS 3 Zrotation Xrotation Yrotation
            End Site
            {
              OFFSET 1 0 0
            }
          }
          JOINT rightEye
          {
            OFFSET -3.6576 8.04674 8.04672
            CHANNELS 3 Zrotation Xrotation Yrotation
            End Site
            {
              OFFSET 1 0 0
            }
          }
        }
      }
      JOINT rCollar
      {
        OFFSET -2.68224 19.2634 -4.8768
        CHANNELS 3 Zrotation Xrotation Yrotation
        JOINT rShldr
        {
          OFFSET -8.77824 -1.95073 1.46304
          CHANNELS 3 Zrotation Xrotation Yrotation
          JOINT rForeArm
          {
            OFFSET -28.1742 -1.7115 0.48768
            CHANNELS 3 Zrotation Xrotation Yrotation
            JOINT rHand
            {
              OFFSET -22.5879 0.773209 7.07136
              CHANNELS 3 Zrotation Xrotation Yrotation
              JOINT rThumb1
              {
                OFFSET -1.2192 -0.487915 3.41376
                CHANNELS 3 Zrotation Xrotation Yrotation
                JOINT rThumb2
                {
                  OFFSET -3.37035 -0.52449 3.41376
                  CHANNELS 3 Zrotation Xrotation Yrotation
                  End Site
                  {
                    OFFSET -1.78271 -1.18214 1.43049
                  }
                }
              }
              JOINT rIndex1
              {
                OFFSET -7.75947 0.938293 5.60832
                CHANNELS 3 Zrotation Xrotation Yrotation
                JOINT rIndex2
                {
                  OFFSET -2.54057 -0.884171 1.56538
                  CHANNELS 3 Zrotation Xrotation Yrotation
                  End Site
                  {
                    OFFSET -1.62519 -0.234802 1.16502
                  }
                }
              }
              JOINT rMid1
              {
                OFFSET -8.24714 1.18213 3.41376
                CHANNELS 3 Zrotation Xrotation Yrotation
                JOINT rMid2
                {
                  OFFSET -3.10165 -0.590103 1.0647
                  CHANNELS 3 Zrotation Xrotation Yrotation
                  End Site
                  {
                    OFFSET -2.48547 -0.328903 0.83742
                  }
                }
              }
              JOINT rRing1
              {
                OFFSET -8.82822 0.546677 1.51678
                CHANNELS 3 Zrotation Xrotation Yrotation
                JOINT rRing2
                {
                  OFFSET -2.60934 -0.819778 -0.0198488
                  CHANNELS 3 Zrotation Xrotation Yrotation
                  End Site
                  {
                    OFFSET -2.33842 -0.294052 0.168128
                  }
                }
              }
              JOINT rPinky1
              {
                OFFSET -8.27202 -0.0477905 -0.4584
                CHANNELS 3 Zrotation Xrotation Yrotation
                JOINT rPinky2
                {
                  OFFSET -1.82734 -0.647385 -0.700984
                  CHANNELS 3 Zrotation Xrotation Yrotation
                  End Site
                  {
                    OFFSET -1.69225 -0.51767 -0.607171
                  }
                }
              }
            }
          }
        }
      }
      JOINT lCollar
      {
        OFFSET 2.68224 19.2634 -4.8768
        CHANNELS 3 Zrotation Xrotation Yrotation
        JOINT lShldr
        {
          OFFSET 8.77824 -1.95073 1.46304
          CHANNELS 3 Zrotation Xrotation Yrotation
          JOINT lForeArm
          {
            OFFSET 28.1742 -1.7115 0.48768
            CHANNELS 3 Zrotation Xrotation Yrotation
            JOINT lHand
            {
              OFFSET 22.5879 0.773209 7.07136
              CHANNELS 3 Zrotation Xrotation Yrotation
              JOINT lThumb1
              {
                OFFSET 1.2192 -0.487915 3.41376
                CHANNELS 3 Zrotation Xrotation Yrotation
                JOINT lThumb2
                {
                  OFFSET 3.37035 -0.52449 3.41376
                  CHANNELS 3 Zrotation Xrotation Yrotation
                  End Site
                  {
                    OFFSET 1.78271 -1.18214 1.43049
                  }
                }
              }
              JOINT lIndex1
              {
                OFFSET 7.75947 0.938293 5.60832
                CHANNELS 3 Zrotation Xrotation Yrotation
                JOINT lIndex2
                {
                  OFFSET 2.54057 -0.884171 1.56538
                  CHANNELS 3 Zrotation Xrotation Yrotation
                  End Site
                  {
                    OFFSET 1.62519 -0.234802 1.16502
                  }
                }
              }
              JOINT lMid1
              {
                OFFSET 8.24714 1.18213 3.41376
                CHANNELS 3 Zrotation Xrotation Yrotation
                JOINT lMid2
                {
                  OFFSET 3.10165 -0.590103 1.0647
                  CHANNELS 3 Zrotation Xrotation Yrotation
                  End Site
                  {
                    OFFSET 2.48547 -0.328903 0.83742
                  }
                }
              }
              JOINT lRing1
              {
                OFFSET 8.82822 0.546677 1.51678
                CHANNELS 3 Zrotation Xrotation Yrotation
                JOINT lRing2
                {
                  OFFSET 2.60934 -0.819778 -0.0198488
                  CHANNELS 3 Zrotation Xrotation Yrotation
                  End Site
                  {
                    OFFSET 2.33842 -0.294052 0.168128
                  }
                }
              }
              JOINT lPinky1
              {
                OFFSET 8.27202 -0.0477905 -0.4584
                CHANNELS 3 Zrotation Xrotation Yrotation
                JOINT lPinky2
                {
                  OFFSET 1.82734 -0.647385 -0.700984
                  CHANNELS 3 Zrotation Xrotation Yrotation
                  End Site
                  {
                    OFFSET 1.69225 -0.51767 -0.607171
                  }
                }
              }
            }
          }
        }
      }
    }
  }
  JOINT rButtock
  {
    OFFSET -8.77824 4.35084 1.2192
    CHANNELS 3 Zrotation Xrotation Yrotation
    JOINT rThigh
    {
      OFFSET 0 -1.70687 -2.19456
      CHANNELS 3 Zrotation Xrotation Yrotation
      JOINT rShin
      {
        OFFSET 0 -36.8199 0.73152
        CHANNELS 3 Zrotation Xrotation Yrotation
        JOINT rFoot
        {
          OFFSET 0.73152 -45.1104 -5.12064
          CHANNELS 3 Zrotation Xrotation Yrotation
          End Site
          {
            OFFSET -1.1221 -3.69964 12.103
          }
        }
      }
    }
  }
  JOINT lButtock
  {
    OFFSET 8.77824 4.35084 1.2192
    CHANNELS 3 Zrotation Xrotation Yrotation
    JOINT lThigh
    {
      OFFSET 0 -1.70687 -2.19456
      CHANNELS 3 Zrotation Xrotation Yrotation
      JOINT lShin
      {
        OFFSET 0 -36.8199 0.73152
        CHANNELS 3 Zrotation Xrotation Yrotation
        JOINT lFoot
        {
          OFFSET -0.73152 -45.1104 -5.12064
          CHANNELS 3 Zrotation Xrotation Yrotation
          End Site
          {
            OFFSET 1.1221 -3.69964 12.103
          }
        }
      }
    }
  }
}
MOTION
Frames:	4
Frame Time:	0.03333
0.024386705830693245 -0.12110043317079544 0.02043163776397705 -13.694318532943726 -4.60864394903183 -4.069950431585312 2.065457012504339 7.085895985364914 3.7178749591112137 -0.596664771437645 -6.867550760507584 2.198345549404621 -1.9872724637389183 8.054043352603912 -1.7378798313438892 7.729520201683044 -14.708074182271957 -4.019070267677307 0.9052136912941933 2.446724809706211 -0.9087718091905117 -0.41139503940939903 2.0613927952945232 1.0756543278694153 -2.365422025322914 -2.346259653568268 1.8433370813727379 28.656447529792786 19.959988296031952 3.966371566057205 -19.078053832054138 -17.56517395377159 41.83362007141113 0.3081633523106575 -3.7557239457964897 -1.8937837332487106 -0.08544985670596361 -0.8933426532894373 2.7140481770038605 1.9035791605710983 0.5164587590843439 -0.38392016664147377 0.736173503100872 0.9525142796337605 2.3568547144532204 5.326167047023773 1.429363265633583 0.931536303833127 -0.06897786632180214 -0.08414869196712971 1.939159668982029 1.5213735960423946 2.6480889692902565 -1.6117722541093826 -3.164970763027668 2.9281048849225044 -1.4609194546937943 5.879041403532028 0.7317132409662008 -0.9732925146818161 -2.5672555714845657 0.20789466798305511 -0.12825135374441743 1.5942872688174248 -1.8556397035717964 -3.49604319781065 -1.3614041358232498 1.945815570652485 1.1050508357584476 -36.53817504644394 17.997151762247086 -19.380537271499634 14.628436714410782 -11.723311990499496 -37.96823501586914 1.28308966755867 -9.133114144206047 0.9792416542768478 -2.0374079793691635 -0.496051674708724 -0.19904237240552902 1.635769810527563 -2.7524859085679054 -1.9759055972099304 -1.6333533078432083 1.4369793981313705 1.2074699811637402 -7.691534087061882 3.1271325051784515 -0.46162158250808716 -2.0596005767583847 0.6038668379187584 -1.7889562994241714 -2.4624502658843994 -0.014372952282428741 -2.2222423553466797 -1.6160614416003227 1.7285085283219814 0.5441620387136936 -9.937949180603027 1.9052816927433014 -1.6743652895092964 -1.8590280041098595 0.11837770231068134 1.1774004064500332 -4.099380970001221 1.6443312540650368 0.6066418765112758 -0.4108879342675209 0.696276817470789 -2.1390144154429436 -20.911531448364258 -19.097958505153656 -14.748422652482986 -9.667562395334244 40.97479552030563 17.481450140476227 -3.9555823802948 -9.68253381550312 -6.155236512422562 -1.9244226068258286 -3.0904408916831017 1.2643547728657722 24.347290992736816 -24.550749957561493 19.48520913720131 17.980821132659912 38.12710762023926 -8.632687032222748 5.8439768850803375 -8.367629125714302 7.4071139842271805
0.039542846381664276 -0.34302669763565063 0.07921363040804863 -17.146487832069397 -2.574978321790695 0.23397646844387054 0.17870284616947174 11.273551136255264 3.983137719333172 1.537974625825882 -8.588350117206573 1.395996417850256 -4.617226682603359 13.346499055624008 -2.176832892000675 7.820374667644501 -21.34005457162857 -4.121478348970413 0.5105824582278728 0.6315643340349197 -0.7047910708934069 -0.5496049951761961 0.44436056166887283 0.3116329573094845 -0.6450692564249039 -1.0186828672885895 1.3737550377845764 41.21914207935333 27.349535822868347 8.550002574920654 -21.85663729906082 -24.376806020736694 56.00632131099701 -2.6093243435025215 -8.368779122829437 -3.417171500623226 -0.6217014323920012 -0.3133663348853588 -0.3162223845720291 0.5252402275800705 0.1954368967562914 0.7352506555616856 0.31547103077173233 -0.30358850955963135 0.24194464087486267 7.059714272618294 4.857512041926384 0.13215168379247189 0.40262673050165176 0.11208775453269482 0.5378761142492294 2.1306687220931053 1.2438083812594414 -0.18843825906515121 -0.9080015122890472 1.267595887184143 -0.30448470264673233 8.804340362548828 0.6173253245651722 -0.040425583720207214 -0.7426708191633224 -0.30112557113170624 0.3884447179734707 2.645938340574503 -1.051061488687992 -1.3964337855577469 -0.14970414340496063 0.038591623306274414 0.8406347315758467 -50.30269503593445 26.398228704929352 -23.445599377155304 19.536067843437195 -19.66797485947609 -50.32416343688965 3.92514131963253 -8.83409008383751 2.260046750307083 -0.8914737403392792 -0.11997034773230553 -0.08635313250124454 0.1806759461760521 -0.5244080722332001 -0.0866708904504776 0.10322682559490204 0.03474600613117218 0.7715669274330139 -8.231350779533386 4.468793570995331 -0.07432292215526104 -0.6231576204299927 -0.1732422038912773 -0.3391995280981064 -3.073619082570076 0.960034690797329 -1.13401148468256 0.16311787068843842 0.7050333917140961 0.6817273842170835 -10.31194768846035 0.7072307914495468 -0.6617002934217453 -0.04920143634080887 0.26935597881674767 0.4928180202841759 -2.5061991065740585 0.21228007972240448 0.3884830232709646 -0.7590293604880571 0.4892873950302601 -0.7721040397882462 -27.929678857326508 -27.135530412197113 -22.44901791214943 -16.201129853725433 54.43999171257019 19.961860477924347 -3.3115826547145844 -10.046648383140564 -9.063916504383087 0.010305382311344147 -1.2610264867544174 -0.1650705188512802 34.50174272060394 -29.6109277009964 29.54495072364807 22.395431399345398 52.59187996387482 -17.56514310836792 4.957849457859993 -9.87422525882721 12.197780013084412
0.09001532942056656 -0.7667869925498962 0.24098586663603783 -20.629994720220566 2.5130722671747208 -3.2535476982593536 -1.5235979855060577 14.297489672899246 4.2217108234763145 3.962123617529869 -10.659521073102951 0.21349243819713593 -5.423246584832668 16.548175513744354 -3.8663483038544655 8.903946205973625 -25.247215032577515 -4.644124880433083 1.4713190495967865 0.23335956037044525 -0.9080268256366253 -0.4504826199263334 0.3734174743294716 -1.1286822706460953 0.7010999321937561 0.310894176363945 0.48873670399188995 52.60446488857269 30.861443281173706 9.287435710430145 -24.023856818675995 -30.363051295280457 67.75224566459656 -5.038283206522465 -11.83894470334053 -4.108929969370365 -0.7567922305315733 -0.2552046440541744 -2.0270580053329468 -0.7605541124939919 0.09424871765077114 -0.23492010310292244 0.49829844385385513 -0.3217209130525589 -0.3828645497560501 7.705393061041832 6.424603387713432 0.32503017224371433 0.06530189886689186 -0.935209421440959 -0.2651578187942505 3.339494727551937 0.6742604076862335 0.2768576145172119 -0.2862124890089035 -0.33167794346809387 0.2399272844195366 10.81921175122261 0.9522198233753443 -0.3176134452223778 0.29339075088500977 0.3801746293902397 0.4858685005456209 2.2962688095867634 -0.017504766583442688 0.2848673611879349 0.48558879643678665 -0.2420046553015709 0.011545568704605103 -58.14294219017029 32.28897124528885 -28.27616661787033 22.723100781440735 -26.55732661485672 -60.591439604759216 6.128659173846245 -9.126690924167633 3.071923926472664 -0.7453148066997528 0.4553188104182482 -0.5102956295013428 -1.6267436742782593 0.03951430320739746 0.3507491201162338 1.2980282306671143 -0.4977449029684067 0.25443635880947113 -7.882845997810364 5.245310179889202 0.03694189712405205 0.77672079205513 -0.9324352629482746 0.4955820366740227 -3.0208620429039 0.5985624343156815 0.830303281545639 -0.009673386812210083 -0.39022788405418396 1.521187350153923 -10.043889060616493 -0.2286382019519806 -0.493951253592968 0.11602330952882767 0.13209116645157337 -0.0063581764698028564 -1.3466741144657135 -1.2289727479219437 0.665343152359128 -0.721164783462882 0.2548196632415056 -0.18184170126914978 -35.978609919548035 -34.39187943935394 -31.55697226524353 -23.329870104789734 64.18244004249573 24.23435926437378 -3.4392480924725533 -10.415598973631859 -11.311393082141876 0.6205927580595016 0.7073970884084702 -0.33065568655729294 45.202158093452454 -33.22969436645508 38.9653006196022 27.406674921512604 64.92283165454865 -27.846205830574036 5.0502244010567665 -11.369999349117279 14.615222811698914
0.2006421536207199 -1.111257791519165 0.3590630106627941 -17.094898223876953 10.814792811870575 -4.415394812822342 -3.109969049692154 14.342878013849258 3.5689453035593033 5.101781487464905 -10.768138468265533 -0.25200778618454933 -6.25153586268425 17.441537529230118 -4.545036368072033 10.753590166568756 -26.0283762216568 -6.201852634549141 1.7378491535782814 -0.12606047093868256 -0.21907126531004906 -0.11012555100023746 0.835580863058567 -0.6149433553218842 1.0358288884162903 0.862564891576767 -0.19187819212675095 57.37157106399536 32.23631948232651 6.61183163523674 -24.37317430973053 -32.66914486885071 72.88327932357788 -6.027509719133377 -12.025165110826492 -4.089269042015076 -1.4317303150892258 0.41169846430420876 -1.5560674667358398 -0.47564584761857986 -0.08477498777210712 -0.7940565794706345 0.5198245123028755 0.04541851580142975 -0.24698786437511444 7.668752744793892 6.869406178593636 0.79308838583529 -0.7358533143997192 -1.8524998426437378 -0.9310363233089447 4.024817235767841 0.5207844078540802 0.3910094127058983 -1.1876171082258224 -1.5206851065158844 0.17335250973701477 10.884759575128555 1.9542507827281952 -1.1215543001890182 0.7858221977949142 0.04044335335493088 0.8965903893113136 2.2856110520660877 0.26556316763162613 0.8591846376657486 0.24582814425230026 -0.5420452728867531 -0.9304631687700748 -57.01480507850647 34.25332188606262 -31.44358992576599 24.13692533969879 -29.58853393793106 -65.64209282398224 7.330236509442329 -11.262756586074829 3.3699099719524384 -0.26323501020669937 0.5410717148333788 -0.32745731994509697 -2.4014823138713837 -1.1375369131565094 -0.16915686428546906 2.91434682905674 -0.17094355076551437 -0.5355704203248024 -7.397095263004303 5.422435216605663 -0.6361051462590694 1.4283058047294617 -1.8521633930504322 0.2898787334561348 -2.4755925871431828 1.0840892046689987 1.5345481038093567 -0.6274706125259399 -0.13334233313798904 1.883862242102623 -9.616409316658974 -1.3702856004238129 -0.3771531209349632 -0.8023261651396751 1.119443904608488 -0.07422208786010742 -0.2548185735940933 -2.206643298268318 0.6327718310058117 -0.13454855186864734 -0.10999261401593685 -0.16364894807338715 -43.14587205648422 -39.95994955301285 -37.44167983531952 -26.278285682201385 69.31731462478638 28.5028213262558 -2.84147959202528 -10.167734026908875 -9.60046961903572 0.6364379078149796 1.1603792756795883 -0.24850599467754364 51.27464175224304 -33.15791577100754 44.68745291233063 31.01043999195099 69.81265962123871 -33.69356632232666 5.900390446186066 -13.318024724721909 14.919190853834152
